<mxfile host="Electron" modified="2024-01-16T13:22:20.284Z" agent="Mozilla/5.0 (Windows NT 10.0; Win64; x64) AppleWebKit/537.36 (KHTML, like Gecko) draw.io/22.1.18 Chrome/120.0.6099.199 Electron/28.1.2 Safari/537.36" etag="nlL3Eu6E3NW1qVtDHJAn" version="22.1.18" type="device">
  <diagram name="Page-1" id="8mtDIU5gfdfmDQiLnDFa">
    <mxGraphModel dx="2400" dy="1514" grid="0" gridSize="10" guides="1" tooltips="1" connect="1" arrows="1" fold="1" page="1" pageScale="1" pageWidth="850" pageHeight="1100" background="none" math="0" shadow="0">
      <root>
        <mxCell id="0" />
        <mxCell id="1" parent="0" />
        <mxCell id="qdoZ0_azvyJZ9i20PAHD-14" value="Intake" style="whiteSpace=wrap;html=1;align=center;fillColor=#FAE5C7;fontColor=#143642;strokeColor=#0F8B8D;labelBackgroundColor=none;" parent="1" vertex="1">
          <mxGeometry x="844" y="302" width="100" height="40" as="geometry" />
        </mxCell>
        <mxCell id="qdoZ0_azvyJZ9i20PAHD-15" value="Exam" style="whiteSpace=wrap;html=1;align=center;fillColor=#FAE5C7;fontColor=#143642;strokeColor=#0F8B8D;labelBackgroundColor=none;" parent="1" vertex="1">
          <mxGeometry x="379.86" y="1032.5" width="100" height="40" as="geometry" />
        </mxCell>
        <mxCell id="qdoZ0_azvyJZ9i20PAHD-69" value="M" style="rounded=0;orthogonalLoop=1;jettySize=auto;html=1;endArrow=none;endFill=0;shape=link;fontSize=17;fontColor=default;labelBackgroundColor=none;strokeColor=#A8201A;entryX=0;entryY=0.5;entryDx=0;entryDy=0;" parent="1" source="qdoZ0_azvyJZ9i20PAHD-16" target="CEPDfcSBHPpfFuHdPuKl-7" edge="1">
          <mxGeometry relative="1" as="geometry">
            <mxPoint x="35" y="26" as="targetPoint" />
          </mxGeometry>
        </mxCell>
        <mxCell id="qdoZ0_azvyJZ9i20PAHD-16" value="Track" style="whiteSpace=wrap;html=1;align=center;fillColor=#FAE5C7;fontColor=#143642;strokeColor=#0F8B8D;labelBackgroundColor=none;" parent="1" vertex="1">
          <mxGeometry x="-181" y="6" width="100" height="40" as="geometry" />
        </mxCell>
        <mxCell id="qdoZ0_azvyJZ9i20PAHD-109" value="&lt;font color=&quot;#33ff33&quot; style=&quot;font-size: 16px;&quot;&gt;1&lt;/font&gt;" style="rounded=0;orthogonalLoop=1;jettySize=auto;html=1;exitX=1;exitY=1;exitDx=0;exitDy=0;endArrow=none;endFill=0;labelBackgroundColor=none;strokeColor=#A8201A;fontColor=default;" parent="1" source="qdoZ0_azvyJZ9i20PAHD-18" target="qdoZ0_azvyJZ9i20PAHD-107" edge="1">
          <mxGeometry relative="1" as="geometry" />
        </mxCell>
        <mxCell id="UTBHH5BBr0o0uskHoU8n-56" value="1" style="edgeLabel;html=1;align=center;verticalAlign=middle;resizable=0;points=[];fontColor=#143642;fontSize=19;" parent="qdoZ0_azvyJZ9i20PAHD-109" vertex="1" connectable="0">
          <mxGeometry x="-0.3592" relative="1" as="geometry">
            <mxPoint x="-1" as="offset" />
          </mxGeometry>
        </mxCell>
        <mxCell id="qdoZ0_azvyJZ9i20PAHD-18" value="Course" style="whiteSpace=wrap;html=1;align=center;fillColor=#FAE5C7;fontColor=#143642;strokeColor=#0F8B8D;labelBackgroundColor=none;" parent="1" vertex="1">
          <mxGeometry x="-845" y="431" width="100" height="40" as="geometry" />
        </mxCell>
        <mxCell id="qdoZ0_azvyJZ9i20PAHD-70" value="M" style="rounded=0;orthogonalLoop=1;jettySize=auto;html=1;exitX=0;exitY=0.5;exitDx=0;exitDy=0;endArrow=none;endFill=0;strokeWidth=2;fontSize=17;fontColor=default;labelBackgroundColor=none;strokeColor=#A8201A;entryX=1;entryY=0.5;entryDx=0;entryDy=0;" parent="1" source="qdoZ0_azvyJZ9i20PAHD-19" target="CEPDfcSBHPpfFuHdPuKl-10" edge="1">
          <mxGeometry relative="1" as="geometry">
            <mxPoint x="760" y="6" as="targetPoint" />
          </mxGeometry>
        </mxCell>
        <mxCell id="qdoZ0_azvyJZ9i20PAHD-19" value="Branch" style="whiteSpace=wrap;html=1;align=center;fillColor=#FAE5C7;fontColor=#143642;strokeColor=#0F8B8D;labelBackgroundColor=none;" parent="1" vertex="1">
          <mxGeometry x="868" y="1" width="100" height="40" as="geometry" />
        </mxCell>
        <mxCell id="qdoZ0_azvyJZ9i20PAHD-156" value="1" style="rounded=0;orthogonalLoop=1;jettySize=auto;html=1;entryX=0;entryY=0.5;entryDx=0;entryDy=0;endArrow=none;endFill=0;fontSize=19;fontColor=default;labelBackgroundColor=none;strokeColor=#A8201A;" parent="1" source="qdoZ0_azvyJZ9i20PAHD-20" target="qdoZ0_azvyJZ9i20PAHD-111" edge="1">
          <mxGeometry relative="1" as="geometry" />
        </mxCell>
        <mxCell id="IzAvOUgwbSu5JqP0lJlk-8" style="edgeStyle=orthogonalEdgeStyle;rounded=0;orthogonalLoop=1;jettySize=auto;html=1;exitX=1;exitY=1;exitDx=0;exitDy=0;entryX=0.5;entryY=1;entryDx=0;entryDy=0;endArrow=none;endFill=0;labelBackgroundColor=none;strokeColor=#A8201A;fontColor=default;" parent="1" source="qdoZ0_azvyJZ9i20PAHD-20" target="IzAvOUgwbSu5JqP0lJlk-6" edge="1">
          <mxGeometry relative="1" as="geometry">
            <Array as="points">
              <mxPoint x="-725" y="931" />
              <mxPoint x="-749" y="929" />
              <mxPoint x="-749" y="1262" />
              <mxPoint x="826" y="1262" />
            </Array>
          </mxGeometry>
        </mxCell>
        <mxCell id="IzAvOUgwbSu5JqP0lJlk-12" value="M" style="edgeLabel;html=1;align=center;verticalAlign=middle;resizable=0;points=[];fontSize=18;fontColor=#143642;labelBackgroundColor=none;" parent="IzAvOUgwbSu5JqP0lJlk-8" vertex="1" connectable="0">
          <mxGeometry x="0.0246" y="-1" relative="1" as="geometry">
            <mxPoint x="-6" as="offset" />
          </mxGeometry>
        </mxCell>
        <mxCell id="qdoZ0_azvyJZ9i20PAHD-20" value="Instructor" style="whiteSpace=wrap;html=1;align=center;fillColor=#FAE5C7;fontColor=#143642;strokeColor=#0F8B8D;labelBackgroundColor=none;" parent="1" vertex="1">
          <mxGeometry x="-828" y="891" width="100" height="40" as="geometry" />
        </mxCell>
        <mxCell id="qdoZ0_azvyJZ9i20PAHD-96" value="M" style="rounded=0;orthogonalLoop=1;jettySize=auto;html=1;endArrow=none;endFill=0;shape=link;fontSize=17;fontColor=default;labelBackgroundColor=none;strokeColor=#A8201A;" parent="1" source="qdoZ0_azvyJZ9i20PAHD-21" target="qdoZ0_azvyJZ9i20PAHD-95" edge="1">
          <mxGeometry relative="1" as="geometry" />
        </mxCell>
        <mxCell id="qdoZ0_azvyJZ9i20PAHD-21" value="Student" style="whiteSpace=wrap;html=1;align=center;fillColor=#FAE5C7;fontColor=#143642;strokeColor=#0F8B8D;labelBackgroundColor=none;" parent="1" vertex="1">
          <mxGeometry x="128.7" y="391" width="100" height="40" as="geometry" />
        </mxCell>
        <mxCell id="qdoZ0_azvyJZ9i20PAHD-22" value="Question" style="whiteSpace=wrap;html=1;align=center;fillColor=#FAE5C7;fontColor=#143642;strokeColor=#0F8B8D;labelBackgroundColor=none;" parent="1" vertex="1">
          <mxGeometry x="36" y="667" width="95" height="40" as="geometry" />
        </mxCell>
        <mxCell id="qdoZ0_azvyJZ9i20PAHD-26" value="BranchName" style="ellipse;whiteSpace=wrap;html=1;align=center;fillColor=none;fontColor=#143642;strokeColor=#0F8B8D;labelBackgroundColor=none;" parent="1" vertex="1">
          <mxGeometry x="943.91" y="-114" width="100" height="40" as="geometry" />
        </mxCell>
        <mxCell id="qdoZ0_azvyJZ9i20PAHD-27" value="BranchID " style="ellipse;whiteSpace=wrap;html=1;align=center;fontStyle=4;fillColor=none;fontColor=#143642;strokeColor=#0F8B8D;labelBackgroundColor=none;" parent="1" vertex="1">
          <mxGeometry x="830.91" y="-107" width="100" height="40" as="geometry" />
        </mxCell>
        <mxCell id="qdoZ0_azvyJZ9i20PAHD-74" style="rounded=0;orthogonalLoop=1;jettySize=auto;html=1;exitX=0.5;exitY=1;exitDx=0;exitDy=0;endArrow=none;endFill=0;labelBackgroundColor=none;strokeColor=#A8201A;fontColor=default;" parent="1" target="qdoZ0_azvyJZ9i20PAHD-16" edge="1">
          <mxGeometry relative="1" as="geometry">
            <mxPoint x="-111" y="-24" as="sourcePoint" />
          </mxGeometry>
        </mxCell>
        <mxCell id="qdoZ0_azvyJZ9i20PAHD-29" value="TrackName" style="ellipse;whiteSpace=wrap;html=1;align=center;fillColor=none;fontColor=#143642;strokeColor=#0F8B8D;labelBackgroundColor=none;" parent="1" vertex="1">
          <mxGeometry x="-160" y="-67" width="100" height="40" as="geometry" />
        </mxCell>
        <mxCell id="qdoZ0_azvyJZ9i20PAHD-30" value="TrackID " style="ellipse;whiteSpace=wrap;html=1;align=center;fontStyle=4;fillColor=none;fontColor=#143642;strokeColor=#0F8B8D;labelBackgroundColor=none;" parent="1" vertex="1">
          <mxGeometry x="-273" y="-62" width="100" height="40" as="geometry" />
        </mxCell>
        <mxCell id="qdoZ0_azvyJZ9i20PAHD-31" value="IntakeID " style="ellipse;whiteSpace=wrap;html=1;align=center;fontStyle=4;fillColor=none;fontColor=#143642;strokeColor=#0F8B8D;labelBackgroundColor=none;" parent="1" vertex="1">
          <mxGeometry x="977" y="328" width="100" height="40" as="geometry" />
        </mxCell>
        <mxCell id="qdoZ0_azvyJZ9i20PAHD-72" style="rounded=0;orthogonalLoop=1;jettySize=auto;html=1;exitX=0;exitY=1;exitDx=0;exitDy=0;entryX=1;entryY=0;entryDx=0;entryDy=0;endArrow=none;endFill=0;labelBackgroundColor=none;strokeColor=#A8201A;fontColor=default;" parent="1" source="qdoZ0_azvyJZ9i20PAHD-32" target="qdoZ0_azvyJZ9i20PAHD-14" edge="1">
          <mxGeometry relative="1" as="geometry" />
        </mxCell>
        <mxCell id="qdoZ0_azvyJZ9i20PAHD-32" value="IntakeName" style="ellipse;whiteSpace=wrap;html=1;align=center;fillColor=none;fontColor=#143642;strokeColor=#0F8B8D;labelBackgroundColor=none;" parent="1" vertex="1">
          <mxGeometry x="977" y="272" width="100" height="40" as="geometry" />
        </mxCell>
        <mxCell id="qdoZ0_azvyJZ9i20PAHD-85" style="rounded=0;orthogonalLoop=1;jettySize=auto;html=1;exitX=1;exitY=0.5;exitDx=0;exitDy=0;entryX=0;entryY=0;entryDx=0;entryDy=0;endArrow=none;endFill=0;labelBackgroundColor=none;strokeColor=#A8201A;fontColor=default;" parent="1" source="qdoZ0_azvyJZ9i20PAHD-33" target="qdoZ0_azvyJZ9i20PAHD-18" edge="1">
          <mxGeometry relative="1" as="geometry" />
        </mxCell>
        <mxCell id="qdoZ0_azvyJZ9i20PAHD-33" value="CourseID " style="ellipse;whiteSpace=wrap;html=1;align=center;fontStyle=4;fillColor=none;fontColor=#143642;strokeColor=#0F8B8D;labelBackgroundColor=none;" parent="1" vertex="1">
          <mxGeometry x="-1047" y="382" width="100" height="40" as="geometry" />
        </mxCell>
        <mxCell id="qdoZ0_azvyJZ9i20PAHD-84" style="rounded=0;orthogonalLoop=1;jettySize=auto;html=1;exitX=1;exitY=0.5;exitDx=0;exitDy=0;endArrow=none;endFill=0;labelBackgroundColor=none;strokeColor=#A8201A;fontColor=default;" parent="1" source="qdoZ0_azvyJZ9i20PAHD-34" target="qdoZ0_azvyJZ9i20PAHD-18" edge="1">
          <mxGeometry relative="1" as="geometry" />
        </mxCell>
        <mxCell id="qdoZ0_azvyJZ9i20PAHD-34" value="CourseName" style="ellipse;whiteSpace=wrap;html=1;align=center;fillColor=none;fontColor=#143642;strokeColor=#0F8B8D;labelBackgroundColor=none;" parent="1" vertex="1">
          <mxGeometry x="-1027" y="331" width="100" height="40" as="geometry" />
        </mxCell>
        <mxCell id="qdoZ0_azvyJZ9i20PAHD-188" style="rounded=0;orthogonalLoop=1;jettySize=auto;html=1;entryX=0;entryY=0.5;entryDx=0;entryDy=0;endArrow=none;endFill=0;labelBackgroundColor=none;strokeColor=#A8201A;fontColor=default;" parent="1" source="qdoZ0_azvyJZ9i20PAHD-35" target="qdoZ0_azvyJZ9i20PAHD-18" edge="1">
          <mxGeometry relative="1" as="geometry" />
        </mxCell>
        <mxCell id="qdoZ0_azvyJZ9i20PAHD-35" value="Description" style="ellipse;whiteSpace=wrap;html=1;align=center;fillColor=none;fontColor=#143642;strokeColor=#0F8B8D;labelBackgroundColor=none;" parent="1" vertex="1">
          <mxGeometry x="-1081" y="431" width="100" height="40" as="geometry" />
        </mxCell>
        <mxCell id="qdoZ0_azvyJZ9i20PAHD-36" value="MaxDegree" style="ellipse;whiteSpace=wrap;html=1;align=center;fillColor=none;fontColor=#143642;strokeColor=#0F8B8D;labelBackgroundColor=none;" parent="1" vertex="1">
          <mxGeometry x="-1081" y="552" width="100" height="40" as="geometry" />
        </mxCell>
        <mxCell id="qdoZ0_azvyJZ9i20PAHD-87" style="rounded=0;orthogonalLoop=1;jettySize=auto;html=1;exitX=1;exitY=0.5;exitDx=0;exitDy=0;endArrow=none;endFill=0;labelBackgroundColor=none;strokeColor=#A8201A;fontColor=default;" parent="1" source="qdoZ0_azvyJZ9i20PAHD-37" target="qdoZ0_azvyJZ9i20PAHD-18" edge="1">
          <mxGeometry relative="1" as="geometry" />
        </mxCell>
        <mxCell id="qdoZ0_azvyJZ9i20PAHD-37" value="MinDegree" style="ellipse;whiteSpace=wrap;html=1;align=center;fillColor=none;fontColor=#143642;strokeColor=#0F8B8D;labelBackgroundColor=none;" parent="1" vertex="1">
          <mxGeometry x="-1092" y="492" width="100" height="40" as="geometry" />
        </mxCell>
        <mxCell id="qdoZ0_azvyJZ9i20PAHD-90" style="rounded=0;orthogonalLoop=1;jettySize=auto;html=1;exitX=1;exitY=0.5;exitDx=0;exitDy=0;entryX=0;entryY=0.75;entryDx=0;entryDy=0;endArrow=none;endFill=0;labelBackgroundColor=none;strokeColor=#A8201A;fontColor=default;" parent="1" source="qdoZ0_azvyJZ9i20PAHD-38" target="qdoZ0_azvyJZ9i20PAHD-20" edge="1">
          <mxGeometry relative="1" as="geometry" />
        </mxCell>
        <mxCell id="qdoZ0_azvyJZ9i20PAHD-38" value="InstructorID " style="ellipse;whiteSpace=wrap;html=1;align=center;fontStyle=4;fillColor=none;fontColor=#143642;strokeColor=#0F8B8D;labelBackgroundColor=none;" parent="1" vertex="1">
          <mxGeometry x="-955" y="877" width="100" height="40" as="geometry" />
        </mxCell>
        <mxCell id="qdoZ0_azvyJZ9i20PAHD-89" style="rounded=0;orthogonalLoop=1;jettySize=auto;html=1;exitX=1;exitY=0.5;exitDx=0;exitDy=0;entryX=0.25;entryY=0;entryDx=0;entryDy=0;endArrow=none;endFill=0;labelBackgroundColor=none;strokeColor=#A8201A;fontColor=default;" parent="1" source="qdoZ0_azvyJZ9i20PAHD-39" target="qdoZ0_azvyJZ9i20PAHD-20" edge="1">
          <mxGeometry relative="1" as="geometry" />
        </mxCell>
        <mxCell id="qdoZ0_azvyJZ9i20PAHD-39" value="InstructorName" style="ellipse;whiteSpace=wrap;html=1;align=center;fillColor=none;fontColor=#143642;strokeColor=#0F8B8D;labelBackgroundColor=none;" parent="1" vertex="1">
          <mxGeometry x="-934" y="823" width="100" height="40" as="geometry" />
        </mxCell>
        <mxCell id="qdoZ0_azvyJZ9i20PAHD-186" style="rounded=0;orthogonalLoop=1;jettySize=auto;html=1;exitX=0.5;exitY=1;exitDx=0;exitDy=0;endArrow=none;endFill=0;labelBackgroundColor=none;strokeColor=#A8201A;fontColor=default;" parent="1" source="qdoZ0_azvyJZ9i20PAHD-40" edge="1">
          <mxGeometry relative="1" as="geometry">
            <mxPoint x="183" y="389" as="targetPoint" />
          </mxGeometry>
        </mxCell>
        <mxCell id="qdoZ0_azvyJZ9i20PAHD-40" value="StudentID " style="ellipse;whiteSpace=wrap;html=1;align=center;fontStyle=4;fillColor=none;fontColor=#143642;strokeColor=#0F8B8D;labelBackgroundColor=none;" parent="1" vertex="1">
          <mxGeometry x="155.85999999999999" y="247" width="100" height="40" as="geometry" />
        </mxCell>
        <mxCell id="qdoZ0_azvyJZ9i20PAHD-185" style="rounded=0;orthogonalLoop=1;jettySize=auto;html=1;exitX=0.5;exitY=1;exitDx=0;exitDy=0;entryX=0.75;entryY=0;entryDx=0;entryDy=0;endArrow=none;endFill=0;labelBackgroundColor=none;strokeColor=#A8201A;fontColor=default;" parent="1" source="qdoZ0_azvyJZ9i20PAHD-41" target="qdoZ0_azvyJZ9i20PAHD-21" edge="1">
          <mxGeometry relative="1" as="geometry" />
        </mxCell>
        <mxCell id="qdoZ0_azvyJZ9i20PAHD-41" value="StudentName" style="ellipse;whiteSpace=wrap;html=1;align=center;fillColor=none;fontColor=#143642;strokeColor=#0F8B8D;labelBackgroundColor=none;" parent="1" vertex="1">
          <mxGeometry x="255.85999999999999" y="312" width="100" height="40" as="geometry" />
        </mxCell>
        <mxCell id="qdoZ0_azvyJZ9i20PAHD-181" style="rounded=0;orthogonalLoop=1;jettySize=auto;html=1;entryX=0;entryY=0;entryDx=0;entryDy=0;endArrow=none;endFill=0;labelBackgroundColor=none;strokeColor=#A8201A;fontColor=default;" parent="1" source="qdoZ0_azvyJZ9i20PAHD-42" target="qdoZ0_azvyJZ9i20PAHD-22" edge="1">
          <mxGeometry relative="1" as="geometry" />
        </mxCell>
        <mxCell id="qdoZ0_azvyJZ9i20PAHD-42" value="QuestionID " style="ellipse;whiteSpace=wrap;html=1;align=center;fontStyle=4;fillColor=none;fontColor=#143642;strokeColor=#0F8B8D;labelBackgroundColor=none;" parent="1" vertex="1">
          <mxGeometry x="-52.3" y="612" width="67" height="32" as="geometry" />
        </mxCell>
        <mxCell id="qdoZ0_azvyJZ9i20PAHD-184" style="rounded=0;orthogonalLoop=1;jettySize=auto;html=1;endArrow=none;endFill=0;labelBackgroundColor=none;strokeColor=#A8201A;fontColor=default;" parent="1" source="qdoZ0_azvyJZ9i20PAHD-46" target="qdoZ0_azvyJZ9i20PAHD-22" edge="1">
          <mxGeometry relative="1" as="geometry" />
        </mxCell>
        <mxCell id="qdoZ0_azvyJZ9i20PAHD-46" value="CorrectAnswer " style="ellipse;whiteSpace=wrap;html=1;align=center;fillColor=none;fontColor=#143642;strokeColor=#0F8B8D;labelBackgroundColor=none;" parent="1" vertex="1">
          <mxGeometry x="-13.299999999999997" y="734" width="100" height="40" as="geometry" />
        </mxCell>
        <mxCell id="qdoZ0_azvyJZ9i20PAHD-183" style="rounded=0;orthogonalLoop=1;jettySize=auto;html=1;entryX=0.14;entryY=-0.075;entryDx=0;entryDy=0;endArrow=none;endFill=0;entryPerimeter=0;labelBackgroundColor=none;strokeColor=#A8201A;fontColor=default;" parent="1" source="qdoZ0_azvyJZ9i20PAHD-47" target="qdoZ0_azvyJZ9i20PAHD-22" edge="1">
          <mxGeometry relative="1" as="geometry" />
        </mxCell>
        <mxCell id="qdoZ0_azvyJZ9i20PAHD-47" value="Type " style="ellipse;whiteSpace=wrap;html=1;align=center;fillColor=none;fontColor=#143642;strokeColor=#0F8B8D;labelBackgroundColor=none;" parent="1" vertex="1">
          <mxGeometry x="16.700000000000003" y="592" width="70" height="30" as="geometry" />
        </mxCell>
        <mxCell id="qdoZ0_azvyJZ9i20PAHD-182" style="rounded=0;orthogonalLoop=1;jettySize=auto;html=1;entryX=0.75;entryY=0;entryDx=0;entryDy=0;endArrow=none;endFill=0;labelBackgroundColor=none;strokeColor=#A8201A;fontColor=default;" parent="1" source="qdoZ0_azvyJZ9i20PAHD-48" target="qdoZ0_azvyJZ9i20PAHD-22" edge="1">
          <mxGeometry relative="1" as="geometry" />
        </mxCell>
        <mxCell id="qdoZ0_azvyJZ9i20PAHD-48" value="QuestionText" style="ellipse;whiteSpace=wrap;html=1;align=center;fillColor=none;fontColor=#143642;strokeColor=#0F8B8D;labelBackgroundColor=none;" parent="1" vertex="1">
          <mxGeometry x="102.00000000000001" y="566" width="100" height="40" as="geometry" />
        </mxCell>
        <mxCell id="qdoZ0_azvyJZ9i20PAHD-176" style="rounded=0;orthogonalLoop=1;jettySize=auto;html=1;exitX=0;exitY=0.5;exitDx=0;exitDy=0;endArrow=none;endFill=0;entryX=1;entryY=1;entryDx=0;entryDy=0;labelBackgroundColor=none;strokeColor=#A8201A;fontColor=default;" parent="1" source="qdoZ0_azvyJZ9i20PAHD-49" target="qdoZ0_azvyJZ9i20PAHD-15" edge="1">
          <mxGeometry relative="1" as="geometry">
            <mxPoint x="582.86" y="992.5" as="targetPoint" />
          </mxGeometry>
        </mxCell>
        <mxCell id="qdoZ0_azvyJZ9i20PAHD-49" value="ExamID " style="ellipse;whiteSpace=wrap;html=1;align=center;fontStyle=4;fillColor=none;fontColor=#143642;strokeColor=#0F8B8D;labelBackgroundColor=none;" parent="1" vertex="1">
          <mxGeometry x="527.86" y="1134.5" width="100" height="40" as="geometry" />
        </mxCell>
        <mxCell id="qdoZ0_azvyJZ9i20PAHD-175" style="rounded=0;orthogonalLoop=1;jettySize=auto;html=1;endArrow=none;endFill=0;entryX=1;entryY=0.75;entryDx=0;entryDy=0;labelBackgroundColor=none;strokeColor=#A8201A;fontColor=default;" parent="1" source="qdoZ0_azvyJZ9i20PAHD-53" target="qdoZ0_azvyJZ9i20PAHD-15" edge="1">
          <mxGeometry relative="1" as="geometry">
            <mxPoint x="581.8599999999996" y="995.5" as="targetPoint" />
          </mxGeometry>
        </mxCell>
        <mxCell id="qdoZ0_azvyJZ9i20PAHD-53" value="TotalTime" style="ellipse;whiteSpace=wrap;html=1;align=center;dashed=1;fillColor=none;fontColor=#143642;strokeColor=#0F8B8D;labelBackgroundColor=none;" parent="1" vertex="1">
          <mxGeometry x="610" y="1021" width="100" height="40" as="geometry" />
        </mxCell>
        <mxCell id="qdoZ0_azvyJZ9i20PAHD-174" style="rounded=0;orthogonalLoop=1;jettySize=auto;html=1;exitX=0;exitY=0.5;exitDx=0;exitDy=0;entryX=1;entryY=0.75;entryDx=0;entryDy=0;endArrow=none;endFill=0;labelBackgroundColor=none;strokeColor=#A8201A;fontColor=default;" parent="1" source="qdoZ0_azvyJZ9i20PAHD-54" target="qdoZ0_azvyJZ9i20PAHD-15" edge="1">
          <mxGeometry relative="1" as="geometry" />
        </mxCell>
        <mxCell id="qdoZ0_azvyJZ9i20PAHD-54" value="EndTime" style="ellipse;whiteSpace=wrap;html=1;align=center;fillColor=none;fontColor=#143642;strokeColor=#0F8B8D;labelBackgroundColor=none;" parent="1" vertex="1">
          <mxGeometry x="658" y="931" width="100" height="40" as="geometry" />
        </mxCell>
        <mxCell id="qdoZ0_azvyJZ9i20PAHD-173" style="rounded=0;orthogonalLoop=1;jettySize=auto;html=1;exitX=0;exitY=0.5;exitDx=0;exitDy=0;entryX=1;entryY=0.25;entryDx=0;entryDy=0;endArrow=none;endFill=0;labelBackgroundColor=none;strokeColor=#A8201A;fontColor=default;" parent="1" source="qdoZ0_azvyJZ9i20PAHD-55" target="qdoZ0_azvyJZ9i20PAHD-15" edge="1">
          <mxGeometry relative="1" as="geometry" />
        </mxCell>
        <mxCell id="qdoZ0_azvyJZ9i20PAHD-55" value="StartTime" style="ellipse;whiteSpace=wrap;html=1;align=center;fillColor=none;fontColor=#143642;strokeColor=#0F8B8D;labelBackgroundColor=none;" parent="1" vertex="1">
          <mxGeometry x="599" y="893" width="100" height="40" as="geometry" />
        </mxCell>
        <mxCell id="qdoZ0_azvyJZ9i20PAHD-63" style="rounded=0;orthogonalLoop=1;jettySize=auto;html=1;entryX=0.75;entryY=0;entryDx=0;entryDy=0;endArrow=none;endFill=0;labelBackgroundColor=none;strokeColor=#A8201A;fontColor=default;" parent="1" source="qdoZ0_azvyJZ9i20PAHD-26" target="qdoZ0_azvyJZ9i20PAHD-19" edge="1">
          <mxGeometry relative="1" as="geometry" />
        </mxCell>
        <mxCell id="qdoZ0_azvyJZ9i20PAHD-64" style="rounded=0;orthogonalLoop=1;jettySize=auto;html=1;entryX=0.25;entryY=0;entryDx=0;entryDy=0;endArrow=none;endFill=0;labelBackgroundColor=none;strokeColor=#A8201A;fontColor=default;" parent="1" source="qdoZ0_azvyJZ9i20PAHD-27" target="qdoZ0_azvyJZ9i20PAHD-19" edge="1">
          <mxGeometry relative="1" as="geometry" />
        </mxCell>
        <mxCell id="qdoZ0_azvyJZ9i20PAHD-73" style="rounded=0;orthogonalLoop=1;jettySize=auto;html=1;entryX=1;entryY=0.5;entryDx=0;entryDy=0;endArrow=none;endFill=0;labelBackgroundColor=none;strokeColor=#A8201A;fontColor=default;" parent="1" source="qdoZ0_azvyJZ9i20PAHD-31" target="qdoZ0_azvyJZ9i20PAHD-14" edge="1">
          <mxGeometry relative="1" as="geometry" />
        </mxCell>
        <mxCell id="qdoZ0_azvyJZ9i20PAHD-75" style="rounded=0;orthogonalLoop=1;jettySize=auto;html=1;entryX=0.25;entryY=0;entryDx=0;entryDy=0;endArrow=none;endFill=0;labelBackgroundColor=none;strokeColor=#A8201A;fontColor=default;" parent="1" source="qdoZ0_azvyJZ9i20PAHD-30" target="qdoZ0_azvyJZ9i20PAHD-16" edge="1">
          <mxGeometry relative="1" as="geometry" />
        </mxCell>
        <mxCell id="qdoZ0_azvyJZ9i20PAHD-167" value="M" style="rounded=0;orthogonalLoop=1;jettySize=auto;html=1;entryX=0.75;entryY=0;entryDx=0;entryDy=0;endArrow=none;endFill=0;shape=link;fontSize=17;fontColor=default;labelBackgroundColor=none;strokeColor=#A8201A;" parent="1" source="HVKwMnd102rBAJzlbqlu-4" target="qdoZ0_azvyJZ9i20PAHD-14" edge="1">
          <mxGeometry relative="1" as="geometry">
            <mxPoint x="861.0406032482597" y="289.03944315545243" as="sourcePoint" />
          </mxGeometry>
        </mxCell>
        <mxCell id="qdoZ0_azvyJZ9i20PAHD-88" style="rounded=0;orthogonalLoop=1;jettySize=auto;html=1;exitX=1;exitY=0.5;exitDx=0;exitDy=0;entryX=0.11;entryY=1.05;entryDx=0;entryDy=0;entryPerimeter=0;endArrow=none;endFill=0;labelBackgroundColor=none;strokeColor=#A8201A;fontColor=default;" parent="1" source="qdoZ0_azvyJZ9i20PAHD-36" target="qdoZ0_azvyJZ9i20PAHD-18" edge="1">
          <mxGeometry relative="1" as="geometry" />
        </mxCell>
        <mxCell id="qdoZ0_azvyJZ9i20PAHD-97" value="M" style="rounded=0;orthogonalLoop=1;jettySize=auto;html=1;entryX=1;entryY=0.5;entryDx=0;entryDy=0;endArrow=none;endFill=0;fontSize=16;fontColor=default;labelBackgroundColor=none;strokeColor=#A8201A;" parent="1" source="qdoZ0_azvyJZ9i20PAHD-95" target="qdoZ0_azvyJZ9i20PAHD-18" edge="1">
          <mxGeometry relative="1" as="geometry" />
        </mxCell>
        <mxCell id="qdoZ0_azvyJZ9i20PAHD-95" value="TAKE" style="rhombus;whiteSpace=wrap;html=1;fillColor=#FAE5C7;strokeColor=#0F8B8D;fontColor=#143642;strokeWidth=6;perimeterSpacing=0;opacity=70;labelBackgroundColor=none;" parent="1" vertex="1">
          <mxGeometry x="-159.3" y="470" width="60" height="60" as="geometry" />
        </mxCell>
        <mxCell id="qdoZ0_azvyJZ9i20PAHD-168" value="1" style="rounded=0;orthogonalLoop=1;jettySize=auto;html=1;entryX=0.25;entryY=1;entryDx=0;entryDy=0;endArrow=none;endFill=0;fontSize=18;fontColor=default;labelBackgroundColor=none;strokeColor=#A8201A;" parent="1" source="qdoZ0_azvyJZ9i20PAHD-99" target="qdoZ0_azvyJZ9i20PAHD-14" edge="1">
          <mxGeometry relative="1" as="geometry">
            <Array as="points" />
          </mxGeometry>
        </mxCell>
        <mxCell id="qdoZ0_azvyJZ9i20PAHD-169" value="M" style="rounded=0;orthogonalLoop=1;jettySize=auto;html=1;exitX=0.375;exitY=0.979;exitDx=0;exitDy=0;endArrow=none;endFill=0;shape=link;fontSize=18;fontColor=default;labelBackgroundColor=none;strokeColor=#A8201A;exitPerimeter=0;" parent="1" source="qdoZ0_azvyJZ9i20PAHD-99" edge="1">
          <mxGeometry relative="1" as="geometry">
            <mxPoint x="784" y="778.5" as="sourcePoint" />
            <mxPoint x="448" y="1036" as="targetPoint" />
          </mxGeometry>
        </mxCell>
        <mxCell id="qdoZ0_azvyJZ9i20PAHD-99" value="has" style="rhombus;whiteSpace=wrap;html=1;fillColor=#FAE5C7;strokeColor=#0F8B8D;fontColor=#143642;strokeWidth=6;perimeterSpacing=0;opacity=70;labelBackgroundColor=none;" parent="1" vertex="1">
          <mxGeometry x="793" y="478" width="80" height="80" as="geometry" />
        </mxCell>
        <mxCell id="qdoZ0_azvyJZ9i20PAHD-164" value="M" style="rounded=0;orthogonalLoop=1;jettySize=auto;html=1;entryX=0;entryY=0;entryDx=0;entryDy=0;endArrow=none;endFill=0;fontSize=17;fontColor=default;labelBackgroundColor=none;strokeColor=#A8201A;shape=link;" parent="1" source="qdoZ0_azvyJZ9i20PAHD-107" target="qdoZ0_azvyJZ9i20PAHD-15" edge="1">
          <mxGeometry x="0.0004" relative="1" as="geometry">
            <mxPoint as="offset" />
          </mxGeometry>
        </mxCell>
        <mxCell id="qdoZ0_azvyJZ9i20PAHD-107" value="&lt;font style=&quot;font-size: 17px;&quot;&gt;Take&lt;/font&gt;" style="rhombus;whiteSpace=wrap;html=1;fillColor=#FAE5C7;strokeColor=#0F8B8D;fontColor=#143642;strokeWidth=6;perimeterSpacing=0;opacity=70;labelBackgroundColor=none;" parent="1" vertex="1">
          <mxGeometry x="-56.14" y="821.5" width="80" height="80" as="geometry" />
        </mxCell>
        <mxCell id="qdoZ0_azvyJZ9i20PAHD-166" value="M" style="rounded=0;orthogonalLoop=1;jettySize=auto;html=1;entryX=0;entryY=1;entryDx=0;entryDy=0;endArrow=none;endFill=0;strokeWidth=2;fontSize=17;fontColor=default;labelBackgroundColor=none;strokeColor=#A8201A;shape=link;" parent="1" source="qdoZ0_azvyJZ9i20PAHD-111" target="qdoZ0_azvyJZ9i20PAHD-15" edge="1">
          <mxGeometry relative="1" as="geometry" />
        </mxCell>
        <mxCell id="qdoZ0_azvyJZ9i20PAHD-111" value="&lt;font style=&quot;font-size: 16px;&quot;&gt;make&lt;/font&gt;" style="rhombus;whiteSpace=wrap;html=1;fillColor=#FAE5C7;strokeColor=#0F8B8D;fontColor=#143642;strokeWidth=6;perimeterSpacing=0;opacity=70;labelBackgroundColor=none;" parent="1" vertex="1">
          <mxGeometry x="-38.14" y="1037.5" width="80" height="80" as="geometry" />
        </mxCell>
        <mxCell id="qdoZ0_azvyJZ9i20PAHD-119" value="M" style="rounded=0;orthogonalLoop=1;jettySize=auto;html=1;exitX=0.69;exitY=0.894;exitDx=0;exitDy=0;entryX=0.25;entryY=0;entryDx=0;entryDy=0;endArrow=none;endFill=0;shape=link;fontSize=19;fontColor=default;exitPerimeter=0;labelBackgroundColor=none;strokeColor=#A8201A;" parent="1" source="qdoZ0_azvyJZ9i20PAHD-118" target="qdoZ0_azvyJZ9i20PAHD-15" edge="1">
          <mxGeometry relative="1" as="geometry" />
        </mxCell>
        <mxCell id="qdoZ0_azvyJZ9i20PAHD-154" value="M" style="rounded=0;orthogonalLoop=1;jettySize=auto;html=1;entryX=1;entryY=1;entryDx=0;entryDy=0;endArrow=none;endFill=0;labelBackgroundColor=none;strokeColor=#A8201A;fontColor=default;fontSize=14;" parent="1" target="qdoZ0_azvyJZ9i20PAHD-21" edge="1">
          <mxGeometry relative="1" as="geometry">
            <mxPoint x="356" y="732" as="sourcePoint" />
          </mxGeometry>
        </mxCell>
        <mxCell id="qdoZ0_azvyJZ9i20PAHD-118" value="take" style="shape=rhombus;perimeter=rhombusPerimeter;whiteSpace=wrap;html=1;align=center;fillColor=#FAE5C7;strokeColor=#0F8B8D;fontColor=#143642;strokeWidth=6;perimeterSpacing=0;opacity=70;labelBackgroundColor=none;" parent="1" vertex="1">
          <mxGeometry x="305.59000000000003" y="732.79" width="110" height="60" as="geometry" />
        </mxCell>
        <mxCell id="qdoZ0_azvyJZ9i20PAHD-127" style="edgeStyle=orthogonalEdgeStyle;rounded=0;orthogonalLoop=1;jettySize=auto;html=1;exitX=0.5;exitY=1;exitDx=0;exitDy=0;labelBackgroundColor=none;strokeColor=#A8201A;fontColor=default;" parent="1" edge="1">
          <mxGeometry relative="1" as="geometry">
            <mxPoint x="577.86" y="1078.4999999999998" as="sourcePoint" />
            <mxPoint x="577.86" y="1078.4999999999998" as="targetPoint" />
          </mxGeometry>
        </mxCell>
        <mxCell id="qdoZ0_azvyJZ9i20PAHD-393" style="rounded=0;orthogonalLoop=1;jettySize=auto;html=1;entryX=1;entryY=0;entryDx=0;entryDy=0;endArrow=none;endFill=0;labelBackgroundColor=none;strokeColor=#A8201A;fontColor=default;" parent="1" target="4ihTeEzKZuz1NccWkODX-2" edge="1">
          <mxGeometry relative="1" as="geometry">
            <mxPoint x="720" y="448" as="sourcePoint" />
          </mxGeometry>
        </mxCell>
        <mxCell id="qdoZ0_azvyJZ9i20PAHD-392" value="Answers" style="ellipse;whiteSpace=wrap;html=1;align=center;fillColor=none;fontColor=#143642;strokeColor=#0F8B8D;labelBackgroundColor=none;" parent="1" vertex="1">
          <mxGeometry x="438" y="633" width="100" height="40" as="geometry" />
        </mxCell>
        <mxCell id="qdoZ0_azvyJZ9i20PAHD-394" value="Result" style="ellipse;whiteSpace=wrap;html=1;align=center;fillColor=none;fontColor=#143642;strokeColor=#0F8B8D;labelBackgroundColor=none;" parent="1" vertex="1">
          <mxGeometry x="673" y="412" width="100" height="40" as="geometry" />
        </mxCell>
        <mxCell id="qdoZ0_azvyJZ9i20PAHD-395" style="rounded=0;orthogonalLoop=1;jettySize=auto;html=1;endArrow=none;endFill=0;labelBackgroundColor=none;strokeColor=#A8201A;fontColor=default;entryX=0.5;entryY=0;entryDx=0;entryDy=0;" parent="1" source="qdoZ0_azvyJZ9i20PAHD-392" target="qdoZ0_azvyJZ9i20PAHD-118" edge="1">
          <mxGeometry relative="1" as="geometry">
            <mxPoint x="371.73" y="729.79" as="targetPoint" />
          </mxGeometry>
        </mxCell>
        <mxCell id="qdoZ0_azvyJZ9i20PAHD-442" value="M" style="rounded=0;orthogonalLoop=1;jettySize=auto;html=1;exitX=1;exitY=0.5;exitDx=0;exitDy=0;entryX=0;entryY=0.75;entryDx=0;entryDy=0;endArrow=none;endFill=0;fontSize=17;fontColor=default;labelBackgroundColor=none;strokeColor=#A8201A;" parent="1" source="qdoZ0_azvyJZ9i20PAHD-441" target="qdoZ0_azvyJZ9i20PAHD-16" edge="1">
          <mxGeometry relative="1" as="geometry" />
        </mxCell>
        <mxCell id="qdoZ0_azvyJZ9i20PAHD-441" value="contain" style="shape=rhombus;perimeter=rhombusPerimeter;whiteSpace=wrap;html=1;align=center;fillColor=#FAE5C7;strokeColor=#0F8B8D;fontColor=#143642;strokeWidth=6;perimeterSpacing=0;opacity=70;labelBackgroundColor=none;" parent="1" vertex="1">
          <mxGeometry x="-802" y="1" width="120" height="60" as="geometry" />
        </mxCell>
        <mxCell id="qdoZ0_azvyJZ9i20PAHD-443" value="M" style="rounded=0;orthogonalLoop=1;jettySize=auto;html=1;exitX=0;exitY=0.5;exitDx=0;exitDy=0;entryX=0.595;entryY=0.056;entryDx=0;entryDy=0;entryPerimeter=0;endArrow=none;endFill=0;shape=link;fontSize=18;fontColor=default;labelBackgroundColor=none;strokeColor=#A8201A;" parent="1" source="qdoZ0_azvyJZ9i20PAHD-441" target="qdoZ0_azvyJZ9i20PAHD-18" edge="1">
          <mxGeometry relative="1" as="geometry" />
        </mxCell>
        <mxCell id="qdoZ0_azvyJZ9i20PAHD-452" style="rounded=0;orthogonalLoop=1;jettySize=auto;html=1;exitX=1;exitY=1;exitDx=0;exitDy=0;endArrow=none;endFill=0;labelBackgroundColor=none;strokeColor=#A8201A;fontColor=default;" parent="1" source="qdoZ0_azvyJZ9i20PAHD-450" edge="1">
          <mxGeometry relative="1" as="geometry">
            <mxPoint x="170" y="387" as="targetPoint" />
          </mxGeometry>
        </mxCell>
        <mxCell id="qdoZ0_azvyJZ9i20PAHD-450" value="Address" style="ellipse;whiteSpace=wrap;html=1;align=center;fillColor=none;fontColor=#143642;strokeColor=#0F8B8D;labelBackgroundColor=none;" parent="1" vertex="1">
          <mxGeometry x="91.99999999999999" y="275" width="100" height="40" as="geometry" />
        </mxCell>
        <mxCell id="qdoZ0_azvyJZ9i20PAHD-453" style="rounded=0;orthogonalLoop=1;jettySize=auto;html=1;exitX=0;exitY=1;exitDx=0;exitDy=0;endArrow=none;endFill=0;labelBackgroundColor=none;strokeColor=#A8201A;fontColor=default;" parent="1" source="qdoZ0_azvyJZ9i20PAHD-451" target="qdoZ0_azvyJZ9i20PAHD-21" edge="1">
          <mxGeometry relative="1" as="geometry">
            <mxPoint x="143.7" y="409" as="targetPoint" />
          </mxGeometry>
        </mxCell>
        <mxCell id="qdoZ0_azvyJZ9i20PAHD-451" value="Age" style="ellipse;whiteSpace=wrap;html=1;align=center;fillColor=none;fontColor=#143642;strokeColor=#0F8B8D;labelBackgroundColor=none;" parent="1" vertex="1">
          <mxGeometry x="217" y="295" width="80" height="33" as="geometry" />
        </mxCell>
        <mxCell id="qdoZ0_azvyJZ9i20PAHD-460" style="rounded=0;orthogonalLoop=1;jettySize=auto;html=1;exitX=1;exitY=0.5;exitDx=0;exitDy=0;entryX=0.25;entryY=1;entryDx=0;entryDy=0;endArrow=none;endFill=0;labelBackgroundColor=none;strokeColor=#A8201A;fontColor=default;" parent="1" source="qdoZ0_azvyJZ9i20PAHD-454" target="qdoZ0_azvyJZ9i20PAHD-20" edge="1">
          <mxGeometry relative="1" as="geometry" />
        </mxCell>
        <mxCell id="qdoZ0_azvyJZ9i20PAHD-454" value="Address" style="ellipse;whiteSpace=wrap;html=1;align=center;fillColor=none;fontColor=#143642;strokeColor=#0F8B8D;labelBackgroundColor=none;" parent="1" vertex="1">
          <mxGeometry x="-925" y="985" width="100" height="40" as="geometry" />
        </mxCell>
        <mxCell id="qdoZ0_azvyJZ9i20PAHD-459" style="rounded=0;orthogonalLoop=1;jettySize=auto;html=1;exitX=1;exitY=0.5;exitDx=0;exitDy=0;entryX=0;entryY=1;entryDx=0;entryDy=0;endArrow=none;endFill=0;labelBackgroundColor=none;strokeColor=#A8201A;fontColor=default;" parent="1" source="qdoZ0_azvyJZ9i20PAHD-455" target="qdoZ0_azvyJZ9i20PAHD-20" edge="1">
          <mxGeometry relative="1" as="geometry" />
        </mxCell>
        <mxCell id="qdoZ0_azvyJZ9i20PAHD-455" value="Age" style="ellipse;whiteSpace=wrap;html=1;align=center;fillColor=none;fontColor=#143642;strokeColor=#0F8B8D;labelBackgroundColor=none;" parent="1" vertex="1">
          <mxGeometry x="-966" y="933" width="100" height="40" as="geometry" />
        </mxCell>
        <mxCell id="qdoZ0_azvyJZ9i20PAHD-456" value="Phone" style="ellipse;whiteSpace=wrap;html=1;align=center;fillColor=none;fontColor=#143642;strokeColor=#0F8B8D;labelBackgroundColor=none;" parent="1" vertex="1">
          <mxGeometry x="49.999999999999986" y="319" width="100" height="40" as="geometry" />
        </mxCell>
        <mxCell id="qdoZ0_azvyJZ9i20PAHD-461" style="rounded=0;orthogonalLoop=1;jettySize=auto;html=1;exitX=1;exitY=0;exitDx=0;exitDy=0;entryX=0.75;entryY=1;entryDx=0;entryDy=0;endArrow=none;endFill=0;labelBackgroundColor=none;strokeColor=#A8201A;fontColor=default;" parent="1" source="qdoZ0_azvyJZ9i20PAHD-457" target="qdoZ0_azvyJZ9i20PAHD-20" edge="1">
          <mxGeometry relative="1" as="geometry" />
        </mxCell>
        <mxCell id="qdoZ0_azvyJZ9i20PAHD-457" value="Phone" style="ellipse;whiteSpace=wrap;html=1;align=center;fillColor=none;fontColor=#143642;strokeColor=#0F8B8D;labelBackgroundColor=none;" parent="1" vertex="1">
          <mxGeometry x="-909" y="1032.5" width="100" height="40" as="geometry" />
        </mxCell>
        <mxCell id="qdoZ0_azvyJZ9i20PAHD-458" style="rounded=0;orthogonalLoop=1;jettySize=auto;html=1;exitX=0.711;exitY=0.986;exitDx=0;exitDy=0;endArrow=none;endFill=0;labelBackgroundColor=none;strokeColor=#A8201A;fontColor=default;exitPerimeter=0;" parent="1" source="qdoZ0_azvyJZ9i20PAHD-456" edge="1">
          <mxGeometry relative="1" as="geometry">
            <mxPoint x="140" y="394" as="targetPoint" />
          </mxGeometry>
        </mxCell>
        <mxCell id="qdoZ0_azvyJZ9i20PAHD-464" style="rounded=0;orthogonalLoop=1;jettySize=auto;html=1;exitX=0;exitY=1;exitDx=0;exitDy=0;entryX=1;entryY=0.25;entryDx=0;entryDy=0;endArrow=none;endFill=0;labelBackgroundColor=none;strokeColor=#A8201A;fontColor=default;" parent="1" source="qdoZ0_azvyJZ9i20PAHD-462" target="qdoZ0_azvyJZ9i20PAHD-19" edge="1">
          <mxGeometry relative="1" as="geometry" />
        </mxCell>
        <mxCell id="qdoZ0_azvyJZ9i20PAHD-462" value="Address" style="ellipse;whiteSpace=wrap;html=1;align=center;fillColor=none;fontColor=#143642;strokeColor=#0F8B8D;labelBackgroundColor=none;" parent="1" vertex="1">
          <mxGeometry x="1025.9099999999999" y="-79" width="100" height="40" as="geometry" />
        </mxCell>
        <mxCell id="qdoZ0_azvyJZ9i20PAHD-465" style="rounded=0;orthogonalLoop=1;jettySize=auto;html=1;exitX=1;exitY=1;exitDx=0;exitDy=0;entryX=0;entryY=0.25;entryDx=0;entryDy=0;endArrow=none;endFill=0;labelBackgroundColor=none;strokeColor=#A8201A;fontColor=default;" parent="1" source="qdoZ0_azvyJZ9i20PAHD-463" target="qdoZ0_azvyJZ9i20PAHD-19" edge="1">
          <mxGeometry relative="1" as="geometry" />
        </mxCell>
        <mxCell id="qdoZ0_azvyJZ9i20PAHD-463" value="Phone" style="ellipse;whiteSpace=wrap;html=1;align=center;fillColor=none;fontColor=#143642;strokeColor=#0F8B8D;labelBackgroundColor=none;" parent="1" vertex="1">
          <mxGeometry x="726.91" y="-85" width="100" height="40" as="geometry" />
        </mxCell>
        <mxCell id="QF4RMbqLzJ8EvuU-fUo9-2" style="rounded=0;orthogonalLoop=1;jettySize=auto;html=1;entryX=1;entryY=1;entryDx=0;entryDy=0;endArrow=none;endFill=0;exitX=0;exitY=0.5;exitDx=0;exitDy=0;labelBackgroundColor=none;strokeColor=#A8201A;fontColor=default;" parent="1" source="QF4RMbqLzJ8EvuU-fUo9-3" target="qdoZ0_azvyJZ9i20PAHD-15" edge="1">
          <mxGeometry relative="1" as="geometry">
            <mxPoint x="747.86" y="995.5" as="sourcePoint" />
          </mxGeometry>
        </mxCell>
        <mxCell id="QF4RMbqLzJ8EvuU-fUo9-3" value="Type" style="ellipse;whiteSpace=wrap;html=1;align=center;fillColor=none;fontColor=#143642;strokeColor=#0F8B8D;labelBackgroundColor=none;" parent="1" vertex="1">
          <mxGeometry x="524.86" y="1081.5" width="100" height="40" as="geometry" />
        </mxCell>
        <mxCell id="3so2MiiZi--uFWkapN8Z-4" style="rounded=0;orthogonalLoop=1;jettySize=auto;html=1;endArrow=none;endFill=0;shape=link;entryX=0;entryY=0.5;entryDx=0;entryDy=0;labelBackgroundColor=none;strokeColor=#A8201A;fontColor=default;" parent="1" source="3so2MiiZi--uFWkapN8Z-3" target="qdoZ0_azvyJZ9i20PAHD-22" edge="1">
          <mxGeometry relative="1" as="geometry">
            <mxPoint x="278.86" y="825.5" as="targetPoint" />
          </mxGeometry>
        </mxCell>
        <mxCell id="3so2MiiZi--uFWkapN8Z-6" value="M" style="edgeLabel;html=1;align=center;verticalAlign=middle;resizable=0;points=[];fontSize=17;fontColor=#143642;labelBackgroundColor=none;" parent="3so2MiiZi--uFWkapN8Z-4" vertex="1" connectable="0">
          <mxGeometry x="0.1936" y="-1" relative="1" as="geometry">
            <mxPoint as="offset" />
          </mxGeometry>
        </mxCell>
        <mxCell id="3so2MiiZi--uFWkapN8Z-5" style="rounded=0;orthogonalLoop=1;jettySize=auto;html=1;entryX=1;entryY=0.75;entryDx=0;entryDy=0;endArrow=none;endFill=0;labelBackgroundColor=none;strokeColor=#A8201A;fontColor=default;" parent="1" source="3so2MiiZi--uFWkapN8Z-3" target="qdoZ0_azvyJZ9i20PAHD-18" edge="1">
          <mxGeometry relative="1" as="geometry" />
        </mxCell>
        <mxCell id="3so2MiiZi--uFWkapN8Z-7" value="1" style="edgeLabel;html=1;align=center;verticalAlign=middle;resizable=0;points=[];fontSize=17;fontColor=#143642;labelBackgroundColor=none;" parent="3so2MiiZi--uFWkapN8Z-5" vertex="1" connectable="0">
          <mxGeometry x="-0.2236" y="-1" relative="1" as="geometry">
            <mxPoint y="-1" as="offset" />
          </mxGeometry>
        </mxCell>
        <mxCell id="3so2MiiZi--uFWkapN8Z-3" value="&lt;span style=&quot;font-size: 17px;&quot;&gt;Has&lt;/span&gt;" style="shape=rhombus;perimeter=rhombusPerimeter;whiteSpace=wrap;html=1;align=center;fillColor=#FAE5C7;strokeColor=#0F8B8D;fontColor=#143642;strokeWidth=6;perimeterSpacing=0;opacity=70;labelBackgroundColor=none;" parent="1" vertex="1">
          <mxGeometry x="-214" y="592" width="120" height="60" as="geometry" />
        </mxCell>
        <mxCell id="IzAvOUgwbSu5JqP0lJlk-2" style="rounded=0;orthogonalLoop=1;jettySize=auto;html=1;endArrow=none;endFill=0;labelBackgroundColor=none;strokeColor=#A8201A;fontColor=default;exitX=0;exitY=0.5;exitDx=0;exitDy=0;" parent="1" source="IzAvOUgwbSu5JqP0lJlk-1" edge="1">
          <mxGeometry relative="1" as="geometry">
            <mxPoint x="230.7" y="417" as="targetPoint" />
            <mxPoint x="635.538650945826" y="534.0106745270871" as="sourcePoint" />
          </mxGeometry>
        </mxCell>
        <mxCell id="IzAvOUgwbSu5JqP0lJlk-4" value="M" style="edgeLabel;html=1;align=center;verticalAlign=middle;resizable=0;points=[];fontSize=15;fontColor=#143642;labelBackgroundColor=none;" parent="IzAvOUgwbSu5JqP0lJlk-2" vertex="1" connectable="0">
          <mxGeometry x="-0.0915" relative="1" as="geometry">
            <mxPoint x="1" as="offset" />
          </mxGeometry>
        </mxCell>
        <mxCell id="IzAvOUgwbSu5JqP0lJlk-3" style="rounded=0;orthogonalLoop=1;jettySize=auto;html=1;exitX=1;exitY=0.5;exitDx=0;exitDy=0;endArrow=none;endFill=0;labelBackgroundColor=none;strokeColor=#A8201A;fontColor=default;" parent="1" source="IzAvOUgwbSu5JqP0lJlk-1" target="qdoZ0_azvyJZ9i20PAHD-14" edge="1">
          <mxGeometry relative="1" as="geometry" />
        </mxCell>
        <mxCell id="IzAvOUgwbSu5JqP0lJlk-5" value="1" style="edgeLabel;html=1;align=center;verticalAlign=middle;resizable=0;points=[];fontSize=17;fontColor=#143642;labelBackgroundColor=none;" parent="IzAvOUgwbSu5JqP0lJlk-3" vertex="1" connectable="0">
          <mxGeometry x="-0.199" y="1" relative="1" as="geometry">
            <mxPoint as="offset" />
          </mxGeometry>
        </mxCell>
        <mxCell id="IzAvOUgwbSu5JqP0lJlk-1" value="Contain" style="shape=rhombus;perimeter=rhombusPerimeter;whiteSpace=wrap;html=1;align=center;fillColor=#FAE5C7;strokeColor=#0F8B8D;fontColor=#143642;strokeWidth=6;perimeterSpacing=0;opacity=70;labelBackgroundColor=none;" parent="1" vertex="1">
          <mxGeometry x="449" y="352" width="120" height="60" as="geometry" />
        </mxCell>
        <mxCell id="IzAvOUgwbSu5JqP0lJlk-6" value="Contain" style="shape=rhombus;perimeter=rhombusPerimeter;whiteSpace=wrap;html=1;align=center;fillColor=#FAE5C7;strokeColor=#0F8B8D;fontColor=#143642;strokeWidth=6;perimeterSpacing=0;opacity=70;labelBackgroundColor=none;" parent="1" vertex="1">
          <mxGeometry x="1083" y="949.5" width="120" height="60" as="geometry" />
        </mxCell>
        <mxCell id="IzAvOUgwbSu5JqP0lJlk-10" style="edgeStyle=orthogonalEdgeStyle;rounded=0;orthogonalLoop=1;jettySize=auto;html=1;entryX=0.63;entryY=1.025;entryDx=0;entryDy=0;entryPerimeter=0;exitX=0.5;exitY=0;exitDx=0;exitDy=0;endArrow=none;endFill=0;labelBackgroundColor=none;strokeColor=#A8201A;fontColor=default;" parent="1" source="IzAvOUgwbSu5JqP0lJlk-6" target="qdoZ0_azvyJZ9i20PAHD-14" edge="1">
          <mxGeometry relative="1" as="geometry">
            <Array as="points">
              <mxPoint x="1143" y="800" />
              <mxPoint x="1040" y="800" />
              <mxPoint x="1040" y="599" />
              <mxPoint x="935" y="599" />
              <mxPoint x="935" y="343" />
            </Array>
          </mxGeometry>
        </mxCell>
        <mxCell id="IzAvOUgwbSu5JqP0lJlk-11" value="M" style="edgeLabel;html=1;align=center;verticalAlign=middle;resizable=0;points=[];fontSize=19;fontColor=#143642;labelBackgroundColor=none;" parent="IzAvOUgwbSu5JqP0lJlk-10" vertex="1" connectable="0">
          <mxGeometry x="-0.1072" y="3" relative="1" as="geometry">
            <mxPoint x="-1" as="offset" />
          </mxGeometry>
        </mxCell>
        <mxCell id="HVKwMnd102rBAJzlbqlu-4" value="HAS" style="rhombus;whiteSpace=wrap;html=1;fillColor=#FAE5C7;strokeColor=#0F8B8D;fontColor=#143642;strokeWidth=6;perimeterSpacing=0;opacity=70;labelBackgroundColor=none;" parent="1" vertex="1">
          <mxGeometry x="888" y="135" width="60" height="60" as="geometry" />
        </mxCell>
        <mxCell id="HVKwMnd102rBAJzlbqlu-5" value="1" style="rounded=0;orthogonalLoop=1;jettySize=auto;html=1;endArrow=none;endFill=0;shape=link;fontSize=17;fontColor=default;entryX=0.5;entryY=0;entryDx=0;entryDy=0;labelBackgroundColor=none;strokeColor=#A8201A;exitX=0.5;exitY=1;exitDx=0;exitDy=0;" parent="1" source="qdoZ0_azvyJZ9i20PAHD-19" target="HVKwMnd102rBAJzlbqlu-4" edge="1">
          <mxGeometry relative="1" as="geometry">
            <mxPoint as="offset" />
            <mxPoint x="763.91" y="47" as="sourcePoint" />
            <mxPoint x="871.91" y="132" as="targetPoint" />
          </mxGeometry>
        </mxCell>
        <mxCell id="CEPDfcSBHPpfFuHdPuKl-1" value="1" style="rounded=0;orthogonalLoop=1;jettySize=auto;html=1;endArrow=none;endFill=0;fontSize=17;fontColor=default;labelBackgroundColor=none;strokeColor=#A8201A;" parent="1" source="CEPDfcSBHPpfFuHdPuKl-2" target="CEPDfcSBHPpfFuHdPuKl-7" edge="1">
          <mxGeometry relative="1" as="geometry" />
        </mxCell>
        <mxCell id="CEPDfcSBHPpfFuHdPuKl-2" value="Department" style="whiteSpace=wrap;html=1;align=center;fillColor=#FAE5C7;fontColor=#143642;strokeColor=#0F8B8D;labelBackgroundColor=none;" parent="1" vertex="1">
          <mxGeometry x="326" y="8" width="100" height="40" as="geometry" />
        </mxCell>
        <mxCell id="CEPDfcSBHPpfFuHdPuKl-3" value="DepartmentID " style="ellipse;whiteSpace=wrap;html=1;align=center;fontStyle=4;fillColor=none;fontColor=#143642;strokeColor=#0F8B8D;labelBackgroundColor=none;" parent="1" vertex="1">
          <mxGeometry x="323" y="-72" width="100" height="40" as="geometry" />
        </mxCell>
        <mxCell id="CEPDfcSBHPpfFuHdPuKl-4" style="rounded=0;orthogonalLoop=1;jettySize=auto;html=1;entryX=0.75;entryY=0;entryDx=0;entryDy=0;endArrow=none;endFill=0;labelBackgroundColor=none;strokeColor=#A8201A;fontColor=default;" parent="1" source="CEPDfcSBHPpfFuHdPuKl-5" target="CEPDfcSBHPpfFuHdPuKl-2" edge="1">
          <mxGeometry relative="1" as="geometry" />
        </mxCell>
        <mxCell id="CEPDfcSBHPpfFuHdPuKl-5" value="DepartmentName" style="ellipse;whiteSpace=wrap;html=1;align=center;fillColor=none;fontColor=#143642;strokeColor=#0F8B8D;labelBackgroundColor=none;" parent="1" vertex="1">
          <mxGeometry x="405" y="-130" width="98" height="51" as="geometry" />
        </mxCell>
        <mxCell id="CEPDfcSBHPpfFuHdPuKl-6" style="rounded=0;orthogonalLoop=1;jettySize=auto;html=1;exitX=0.5;exitY=1;exitDx=0;exitDy=0;entryX=0.5;entryY=0;entryDx=0;entryDy=0;endArrow=none;endFill=0;labelBackgroundColor=none;strokeColor=#A8201A;fontColor=default;" parent="1" source="CEPDfcSBHPpfFuHdPuKl-3" target="CEPDfcSBHPpfFuHdPuKl-2" edge="1">
          <mxGeometry relative="1" as="geometry" />
        </mxCell>
        <mxCell id="CEPDfcSBHPpfFuHdPuKl-7" value="HAS" style="rhombus;whiteSpace=wrap;html=1;fillColor=#FAE5C7;strokeColor=#0F8B8D;fontColor=#143642;strokeWidth=6;perimeterSpacing=0;opacity=70;labelBackgroundColor=none;" parent="1" vertex="1">
          <mxGeometry x="104" y="-3" width="60" height="60" as="geometry" />
        </mxCell>
        <mxCell id="CEPDfcSBHPpfFuHdPuKl-8" value="Phone" style="ellipse;whiteSpace=wrap;html=1;align=center;fillColor=none;fontColor=#143642;strokeColor=#0F8B8D;labelBackgroundColor=none;" parent="1" vertex="1">
          <mxGeometry x="204" y="-107" width="100" height="40" as="geometry" />
        </mxCell>
        <mxCell id="CEPDfcSBHPpfFuHdPuKl-9" style="rounded=0;orthogonalLoop=1;jettySize=auto;html=1;entryX=0.907;entryY=1.025;entryDx=0;entryDy=0;entryPerimeter=0;endArrow=none;endFill=0;labelBackgroundColor=none;strokeColor=#A8201A;fontColor=default;exitX=0.656;exitY=0.978;exitDx=0;exitDy=0;exitPerimeter=0;" parent="1" source="CEPDfcSBHPpfFuHdPuKl-8" edge="1">
          <mxGeometry relative="1" as="geometry">
            <mxPoint x="370.3" as="sourcePoint" />
            <mxPoint x="329.99999999999983" y="8" as="targetPoint" />
          </mxGeometry>
        </mxCell>
        <mxCell id="CEPDfcSBHPpfFuHdPuKl-10" value="HAS" style="rhombus;whiteSpace=wrap;html=1;fillColor=#FAE5C7;strokeColor=#0F8B8D;fontColor=#143642;strokeWidth=6;perimeterSpacing=0;opacity=70;labelBackgroundColor=none;" parent="1" vertex="1">
          <mxGeometry x="626" y="-12" width="60" height="60" as="geometry" />
        </mxCell>
        <mxCell id="CEPDfcSBHPpfFuHdPuKl-11" value="M" style="rounded=0;orthogonalLoop=1;jettySize=auto;html=1;endArrow=none;endFill=0;strokeWidth=2;fontSize=17;fontColor=default;labelBackgroundColor=none;strokeColor=#A8201A;" parent="1" edge="1">
          <mxGeometry relative="1" as="geometry">
            <mxPoint x="625" y="21" as="sourcePoint" />
            <mxPoint x="430" y="27" as="targetPoint" />
          </mxGeometry>
        </mxCell>
        <mxCell id="UTBHH5BBr0o0uskHoU8n-30" value="Class" style="whiteSpace=wrap;html=1;align=center;fillColor=#FAE5C7;fontColor=#143642;strokeColor=#0F8B8D;labelBackgroundColor=none;" parent="1" vertex="1">
          <mxGeometry x="-448.28" y="277" width="100" height="40" as="geometry" />
        </mxCell>
        <mxCell id="UTBHH5BBr0o0uskHoU8n-31" style="rounded=0;orthogonalLoop=1;jettySize=auto;html=1;entryX=0.5;entryY=1;entryDx=0;entryDy=0;endArrow=none;endFill=0;labelBackgroundColor=none;strokeColor=#A8201A;fontColor=default;" parent="1" source="UTBHH5BBr0o0uskHoU8n-32" target="UTBHH5BBr0o0uskHoU8n-30" edge="1">
          <mxGeometry relative="1" as="geometry" />
        </mxCell>
        <mxCell id="UTBHH5BBr0o0uskHoU8n-32" value="Name" style="ellipse;whiteSpace=wrap;html=1;align=center;fillColor=none;fontColor=#143642;strokeColor=#0F8B8D;labelBackgroundColor=none;" parent="1" vertex="1">
          <mxGeometry x="-442" y="412" width="100" height="40" as="geometry" />
        </mxCell>
        <mxCell id="UTBHH5BBr0o0uskHoU8n-33" style="rounded=0;orthogonalLoop=1;jettySize=auto;html=1;exitX=1;exitY=0.5;exitDx=0;exitDy=0;endArrow=none;endFill=0;labelBackgroundColor=none;strokeColor=#A8201A;fontColor=default;" parent="1" source="UTBHH5BBr0o0uskHoU8n-34" target="UTBHH5BBr0o0uskHoU8n-30" edge="1">
          <mxGeometry relative="1" as="geometry" />
        </mxCell>
        <mxCell id="UTBHH5BBr0o0uskHoU8n-34" value="Floor" style="ellipse;whiteSpace=wrap;html=1;align=center;fillColor=none;fontColor=#143642;strokeColor=#0F8B8D;labelBackgroundColor=none;" parent="1" vertex="1">
          <mxGeometry x="-559" y="371" width="100" height="40" as="geometry" />
        </mxCell>
        <mxCell id="UTBHH5BBr0o0uskHoU8n-35" value="HAS" style="rhombus;whiteSpace=wrap;html=1;fillColor=#FAE5C7;strokeColor=#0F8B8D;fontColor=#143642;strokeWidth=6;perimeterSpacing=0;opacity=70;labelBackgroundColor=none;" parent="1" vertex="1">
          <mxGeometry x="-184" y="308" width="60" height="60" as="geometry" />
        </mxCell>
        <mxCell id="UTBHH5BBr0o0uskHoU8n-36" value="" style="endArrow=none;html=1;rounded=0;strokeColor=#A8201A;fontColor=#143642;fillColor=#FAE5C7;entryX=0;entryY=0.5;entryDx=0;entryDy=0;exitX=1;exitY=0.75;exitDx=0;exitDy=0;" parent="1" source="UTBHH5BBr0o0uskHoU8n-44" edge="1">
          <mxGeometry width="50" height="50" relative="1" as="geometry">
            <mxPoint x="-287" y="287" as="sourcePoint" />
            <mxPoint x="-181" y="332.9999999999999" as="targetPoint" />
          </mxGeometry>
        </mxCell>
        <mxCell id="UTBHH5BBr0o0uskHoU8n-37" value="" style="endArrow=none;html=1;rounded=0;strokeColor=#A8201A;fontColor=#143642;fillColor=#FAE5C7;" parent="1" source="UTBHH5BBr0o0uskHoU8n-40" edge="1">
          <mxGeometry width="50" height="50" relative="1" as="geometry">
            <mxPoint x="-581" y="270" as="sourcePoint" />
            <mxPoint x="-448.28" y="298" as="targetPoint" />
          </mxGeometry>
        </mxCell>
        <mxCell id="UTBHH5BBr0o0uskHoU8n-38" value="teach" style="rhombus;whiteSpace=wrap;html=1;fillColor=#FAE5C7;strokeColor=#0F8B8D;fontColor=#143642;strokeWidth=6;perimeterSpacing=0;opacity=70;labelBackgroundColor=none;" parent="1" vertex="1">
          <mxGeometry x="-616" y="302" width="60" height="60" as="geometry" />
        </mxCell>
        <mxCell id="UTBHH5BBr0o0uskHoU8n-39" value="" style="endArrow=none;html=1;rounded=0;strokeColor=#A8201A;fontColor=#143642;fillColor=#FAE5C7;exitX=0.962;exitY=0.403;exitDx=0;exitDy=0;exitPerimeter=0;" parent="1" source="UTBHH5BBr0o0uskHoU8n-38" target="UTBHH5BBr0o0uskHoU8n-40" edge="1">
          <mxGeometry width="50" height="50" relative="1" as="geometry">
            <mxPoint x="-581" y="270" as="sourcePoint" />
            <mxPoint x="-448.28" y="298" as="targetPoint" />
          </mxGeometry>
        </mxCell>
        <mxCell id="UTBHH5BBr0o0uskHoU8n-40" value="m" style="text;strokeColor=none;align=center;fillColor=none;html=1;verticalAlign=middle;whiteSpace=wrap;rounded=0;fontColor=#143642;" parent="1" vertex="1">
          <mxGeometry x="-502" y="293" width="16" height="17" as="geometry" />
        </mxCell>
        <mxCell id="UTBHH5BBr0o0uskHoU8n-41" value="" style="endArrow=none;html=1;rounded=0;strokeColor=#A8201A;fontColor=#143642;fillColor=#FAE5C7;exitX=1;exitY=0.5;exitDx=0;exitDy=0;" parent="1" source="UTBHH5BBr0o0uskHoU8n-42" edge="1">
          <mxGeometry width="50" height="50" relative="1" as="geometry">
            <mxPoint x="-72" y="330" as="sourcePoint" />
            <mxPoint x="128.7" y="403" as="targetPoint" />
          </mxGeometry>
        </mxCell>
        <mxCell id="UTBHH5BBr0o0uskHoU8n-43" value="" style="endArrow=none;html=1;rounded=0;strokeColor=#A8201A;fontColor=#143642;fillColor=#FAE5C7;exitX=1;exitY=0.5;exitDx=0;exitDy=0;" parent="1" source="UTBHH5BBr0o0uskHoU8n-35" target="UTBHH5BBr0o0uskHoU8n-42" edge="1">
          <mxGeometry width="50" height="50" relative="1" as="geometry">
            <mxPoint x="-121" y="272" as="sourcePoint" />
            <mxPoint x="128.7" y="403" as="targetPoint" />
          </mxGeometry>
        </mxCell>
        <mxCell id="UTBHH5BBr0o0uskHoU8n-42" value="M" style="text;strokeColor=none;align=center;fillColor=none;html=1;verticalAlign=middle;whiteSpace=wrap;rounded=0;fontColor=#143642;" parent="1" vertex="1">
          <mxGeometry x="60" y="373" width="32" height="23" as="geometry" />
        </mxCell>
        <mxCell id="UTBHH5BBr0o0uskHoU8n-45" value="" style="endArrow=none;html=1;rounded=0;strokeColor=#A8201A;fontColor=#143642;fillColor=#FAE5C7;exitX=1;exitY=0.25;exitDx=0;exitDy=0;entryX=0;entryY=0.5;entryDx=0;entryDy=0;" parent="1" source="UTBHH5BBr0o0uskHoU8n-30" target="UTBHH5BBr0o0uskHoU8n-44" edge="1">
          <mxGeometry width="50" height="50" relative="1" as="geometry">
            <mxPoint x="-348" y="287" as="sourcePoint" />
            <mxPoint x="-181" y="272" as="targetPoint" />
          </mxGeometry>
        </mxCell>
        <mxCell id="UTBHH5BBr0o0uskHoU8n-44" value="1" style="text;strokeColor=none;align=center;fillColor=none;html=1;verticalAlign=middle;whiteSpace=wrap;rounded=0;fontColor=#143642;" parent="1" vertex="1">
          <mxGeometry x="-304" y="288.5" width="17" height="17" as="geometry" />
        </mxCell>
        <mxCell id="UTBHH5BBr0o0uskHoU8n-47" value="" style="endArrow=none;html=1;rounded=0;strokeColor=#A8201A;fontColor=#143642;fillColor=#FAE5C7;" parent="1" source="UTBHH5BBr0o0uskHoU8n-48" target="UTBHH5BBr0o0uskHoU8n-38" edge="1">
          <mxGeometry width="50" height="50" relative="1" as="geometry">
            <mxPoint x="-745" y="429" as="sourcePoint" />
            <mxPoint x="-612" y="331" as="targetPoint" />
          </mxGeometry>
        </mxCell>
        <mxCell id="UTBHH5BBr0o0uskHoU8n-49" value="" style="endArrow=none;html=1;rounded=0;strokeColor=#A8201A;fontColor=#143642;fillColor=#FAE5C7;" parent="1" target="UTBHH5BBr0o0uskHoU8n-48" edge="1">
          <mxGeometry width="50" height="50" relative="1" as="geometry">
            <mxPoint x="-745" y="429" as="sourcePoint" />
            <mxPoint x="-612" y="331" as="targetPoint" />
          </mxGeometry>
        </mxCell>
        <mxCell id="UTBHH5BBr0o0uskHoU8n-48" value="m" style="text;strokeColor=none;align=center;fillColor=none;html=1;verticalAlign=middle;whiteSpace=wrap;rounded=0;fontColor=#143642;" parent="1" vertex="1">
          <mxGeometry x="-741" y="399" width="34" height="17" as="geometry" />
        </mxCell>
        <mxCell id="UTBHH5BBr0o0uskHoU8n-51" value="" style="endArrow=none;html=1;rounded=0;strokeColor=#A8201A;fontColor=#143642;fillColor=#FAE5C7;entryX=0.5;entryY=1;entryDx=0;entryDy=0;" parent="1" source="UTBHH5BBr0o0uskHoU8n-53" target="UTBHH5BBr0o0uskHoU8n-38" edge="1">
          <mxGeometry width="50" height="50" relative="1" as="geometry">
            <mxPoint x="-732" y="891" as="sourcePoint" />
            <mxPoint x="-619.6968503937007" y="730.3031496062993" as="targetPoint" />
          </mxGeometry>
        </mxCell>
        <mxCell id="UTBHH5BBr0o0uskHoU8n-54" value="" style="endArrow=none;html=1;rounded=0;strokeColor=#A8201A;fontColor=#143642;fillColor=#FAE5C7;" parent="1" target="UTBHH5BBr0o0uskHoU8n-53" edge="1">
          <mxGeometry width="50" height="50" relative="1" as="geometry">
            <mxPoint x="-732" y="891" as="sourcePoint" />
            <mxPoint x="-619" y="731" as="targetPoint" />
          </mxGeometry>
        </mxCell>
        <mxCell id="UTBHH5BBr0o0uskHoU8n-53" value="M" style="text;strokeColor=none;align=center;fillColor=none;html=1;verticalAlign=middle;whiteSpace=wrap;rounded=0;fontColor=#143642;" parent="1" vertex="1">
          <mxGeometry x="-738" y="851" width="47" height="17" as="geometry" />
        </mxCell>
        <mxCell id="UTBHH5BBr0o0uskHoU8n-63" value="HAS" style="rhombus;whiteSpace=wrap;html=1;fillColor=#FAE5C7;strokeColor=#0F8B8D;fontColor=#143642;strokeWidth=6;perimeterSpacing=0;opacity=70;labelBackgroundColor=none;" parent="1" vertex="1">
          <mxGeometry x="217" y="113" width="60" height="60" as="geometry" />
        </mxCell>
        <mxCell id="UTBHH5BBr0o0uskHoU8n-64" value="" style="endArrow=none;html=1;rounded=0;strokeColor=#A8201A;fontColor=#143642;fillColor=#FAE5C7;" parent="1" edge="1">
          <mxGeometry relative="1" as="geometry">
            <mxPoint x="281" y="142.41" as="sourcePoint" />
            <mxPoint x="867" y="34" as="targetPoint" />
          </mxGeometry>
        </mxCell>
        <mxCell id="UTBHH5BBr0o0uskHoU8n-67" value="1" style="edgeLabel;html=1;align=center;verticalAlign=middle;resizable=0;points=[];fontColor=#143642;fontSize=16;" parent="UTBHH5BBr0o0uskHoU8n-64" vertex="1" connectable="0">
          <mxGeometry x="0.4782" y="-2" relative="1" as="geometry">
            <mxPoint y="-1" as="offset" />
          </mxGeometry>
        </mxCell>
        <mxCell id="UTBHH5BBr0o0uskHoU8n-72" value="" style="shape=link;html=1;rounded=0;strokeColor=#A8201A;fontColor=#143642;fillColor=#FAE5C7;" parent="1" edge="1">
          <mxGeometry width="100" relative="1" as="geometry">
            <mxPoint x="-345.5" y="283" as="sourcePoint" />
            <mxPoint x="215" y="148" as="targetPoint" />
          </mxGeometry>
        </mxCell>
        <mxCell id="UTBHH5BBr0o0uskHoU8n-73" value="M" style="edgeLabel;html=1;align=center;verticalAlign=middle;resizable=0;points=[];fontColor=#143642;fontSize=15;" parent="UTBHH5BBr0o0uskHoU8n-72" vertex="1" connectable="0">
          <mxGeometry x="-0.3626" y="-7" relative="1" as="geometry">
            <mxPoint y="-1" as="offset" />
          </mxGeometry>
        </mxCell>
        <mxCell id="UTBHH5BBr0o0uskHoU8n-76" value="" style="endArrow=none;html=1;rounded=0;strokeColor=#A8201A;fontColor=#143642;fillColor=#FAE5C7;exitX=0.75;exitY=1;exitDx=0;exitDy=0;" parent="1" source="qdoZ0_azvyJZ9i20PAHD-22" target="qdoZ0_azvyJZ9i20PAHD-118" edge="1">
          <mxGeometry width="50" height="50" relative="1" as="geometry">
            <mxPoint x="139" y="707" as="sourcePoint" />
            <mxPoint x="204" y="797.0000000000002" as="targetPoint" />
          </mxGeometry>
        </mxCell>
        <mxCell id="UTBHH5BBr0o0uskHoU8n-83" value="M" style="edgeLabel;html=1;align=center;verticalAlign=middle;resizable=0;points=[];fontColor=#143642;fontSize=14;" parent="UTBHH5BBr0o0uskHoU8n-76" vertex="1" connectable="0">
          <mxGeometry x="-0.0569" y="1" relative="1" as="geometry">
            <mxPoint as="offset" />
          </mxGeometry>
        </mxCell>
        <mxCell id="Lwr_nMC6wnxSKJ6-OadQ-2" value="&lt;u&gt;ID&lt;/u&gt;" style="ellipse;whiteSpace=wrap;html=1;align=center;fillColor=none;fontColor=#143642;strokeColor=#0F8B8D;labelBackgroundColor=none;" parent="1" vertex="1">
          <mxGeometry x="-334" y="396" width="100" height="40" as="geometry" />
        </mxCell>
        <mxCell id="Lwr_nMC6wnxSKJ6-OadQ-3" value="" style="endArrow=none;html=1;rounded=0;entryX=0.298;entryY=0.062;entryDx=0;entryDy=0;entryPerimeter=0;fillColor=#f8cecc;strokeColor=#b85450;exitX=0.75;exitY=1;exitDx=0;exitDy=0;" parent="1" source="UTBHH5BBr0o0uskHoU8n-30" target="Lwr_nMC6wnxSKJ6-OadQ-2" edge="1">
          <mxGeometry width="50" height="50" relative="1" as="geometry">
            <mxPoint x="-354" y="277" as="sourcePoint" />
            <mxPoint x="-304" y="227" as="targetPoint" />
          </mxGeometry>
        </mxCell>
        <mxCell id="AxaQaUnDs_rHVYDjWhT--1" value="Year" style="ellipse;whiteSpace=wrap;html=1;align=center;fillColor=none;fontColor=#143642;strokeColor=#0F8B8D;labelBackgroundColor=none;" parent="1" vertex="1">
          <mxGeometry x="-707" y="179" width="100" height="40" as="geometry" />
        </mxCell>
        <mxCell id="AxaQaUnDs_rHVYDjWhT--2" value="" style="endArrow=none;html=1;rounded=0;entryX=0.5;entryY=1;entryDx=0;entryDy=0;" parent="1" target="AxaQaUnDs_rHVYDjWhT--1" edge="1">
          <mxGeometry width="50" height="50" relative="1" as="geometry">
            <mxPoint x="-590" y="302" as="sourcePoint" />
            <mxPoint x="-540" y="252" as="targetPoint" />
          </mxGeometry>
        </mxCell>
        <mxCell id="AxaQaUnDs_rHVYDjWhT--3" value="has" style="shape=rhombus;perimeter=rhombusPerimeter;whiteSpace=wrap;html=1;align=center;fillColor=#FAE5C7;strokeColor=#0F8B8D;fontColor=#143642;strokeWidth=6;perimeterSpacing=0;opacity=70;labelBackgroundColor=none;" parent="1" vertex="1">
          <mxGeometry x="202" y="830" width="110" height="60" as="geometry" />
        </mxCell>
        <mxCell id="AxaQaUnDs_rHVYDjWhT--4" value="" style="endArrow=none;html=1;rounded=0;" parent="1" edge="1">
          <mxGeometry width="50" height="50" relative="1" as="geometry">
            <mxPoint x="394" y="1032" as="sourcePoint" />
            <mxPoint x="272" y="877" as="targetPoint" />
          </mxGeometry>
        </mxCell>
        <mxCell id="AxaQaUnDs_rHVYDjWhT--7" value="M" style="edgeLabel;html=1;align=center;verticalAlign=middle;resizable=0;points=[];fontSize=14;" parent="AxaQaUnDs_rHVYDjWhT--4" vertex="1" connectable="0">
          <mxGeometry x="0.0017" y="2" relative="1" as="geometry">
            <mxPoint as="offset" />
          </mxGeometry>
        </mxCell>
        <mxCell id="AxaQaUnDs_rHVYDjWhT--5" value="" style="endArrow=none;html=1;rounded=0;exitX=0;exitY=0;exitDx=0;exitDy=0;" parent="1" source="AxaQaUnDs_rHVYDjWhT--3" edge="1">
          <mxGeometry width="50" height="50" relative="1" as="geometry">
            <mxPoint x="42" y="757" as="sourcePoint" />
            <mxPoint x="92" y="707" as="targetPoint" />
          </mxGeometry>
        </mxCell>
        <mxCell id="AxaQaUnDs_rHVYDjWhT--6" value="M" style="edgeLabel;html=1;align=center;verticalAlign=middle;resizable=0;points=[];fontSize=14;" parent="AxaQaUnDs_rHVYDjWhT--5" vertex="1" connectable="0">
          <mxGeometry x="0.02" y="-4" relative="1" as="geometry">
            <mxPoint x="1" as="offset" />
          </mxGeometry>
        </mxCell>
        <mxCell id="4ihTeEzKZuz1NccWkODX-1" value="" style="endArrow=none;html=1;rounded=0;fillColor=#f8cecc;strokeColor=#b85450;" parent="1" edge="1">
          <mxGeometry width="50" height="50" relative="1" as="geometry">
            <mxPoint x="419" y="1030" as="sourcePoint" />
            <mxPoint x="642" y="583" as="targetPoint" />
          </mxGeometry>
        </mxCell>
        <mxCell id="4ihTeEzKZuz1NccWkODX-5" value="M" style="edgeLabel;html=1;align=center;verticalAlign=middle;resizable=0;points=[];fontSize=14;" parent="4ihTeEzKZuz1NccWkODX-1" vertex="1" connectable="0">
          <mxGeometry x="-0.4181" y="2" relative="1" as="geometry">
            <mxPoint as="offset" />
          </mxGeometry>
        </mxCell>
        <mxCell id="4ihTeEzKZuz1NccWkODX-2" value="has" style="shape=rhombus;perimeter=rhombusPerimeter;whiteSpace=wrap;html=1;align=center;fillColor=#FAE5C7;strokeColor=#0F8B8D;fontColor=#143642;strokeWidth=6;perimeterSpacing=0;opacity=70;labelBackgroundColor=none;" parent="1" vertex="1">
          <mxGeometry x="594" y="520" width="110" height="60" as="geometry" />
        </mxCell>
        <mxCell id="4ihTeEzKZuz1NccWkODX-3" value="" style="endArrow=none;html=1;rounded=0;entryX=0;entryY=0.5;entryDx=0;entryDy=0;fillColor=#f8cecc;strokeColor=#b85450;" parent="1" target="4ihTeEzKZuz1NccWkODX-2" edge="1">
          <mxGeometry width="50" height="50" relative="1" as="geometry">
            <mxPoint x="228.7" y="429" as="sourcePoint" />
            <mxPoint x="306.7" y="375" as="targetPoint" />
          </mxGeometry>
        </mxCell>
        <mxCell id="4ihTeEzKZuz1NccWkODX-4" value="M" style="edgeLabel;html=1;align=center;verticalAlign=middle;resizable=0;points=[];fontSize=14;" parent="4ihTeEzKZuz1NccWkODX-3" vertex="1" connectable="0">
          <mxGeometry x="-0.4979" y="4" relative="1" as="geometry">
            <mxPoint x="-1" as="offset" />
          </mxGeometry>
        </mxCell>
        <mxCell id="4ihTeEzKZuz1NccWkODX-6" value="&lt;font style=&quot;font-size: 17px;&quot;&gt;Make&lt;/font&gt;" style="rhombus;whiteSpace=wrap;html=1;fillColor=#FAE5C7;strokeColor=#0F8B8D;fontColor=#143642;strokeWidth=6;perimeterSpacing=0;opacity=70;labelBackgroundColor=none;" parent="1" vertex="1">
          <mxGeometry x="-364" y="765" width="80" height="80" as="geometry" />
        </mxCell>
        <mxCell id="4ihTeEzKZuz1NccWkODX-7" value="" style="endArrow=none;html=1;rounded=0;entryX=0;entryY=0.5;entryDx=0;entryDy=0;" parent="1" target="4ihTeEzKZuz1NccWkODX-6" edge="1">
          <mxGeometry width="50" height="50" relative="1" as="geometry">
            <mxPoint x="-728" y="901.5" as="sourcePoint" />
            <mxPoint x="-678" y="851.5" as="targetPoint" />
          </mxGeometry>
        </mxCell>
        <mxCell id="4ihTeEzKZuz1NccWkODX-10" value="1" style="edgeLabel;html=1;align=center;verticalAlign=middle;resizable=0;points=[];" parent="4ihTeEzKZuz1NccWkODX-7" vertex="1" connectable="0">
          <mxGeometry x="-0.3922" y="-1" relative="1" as="geometry">
            <mxPoint as="offset" />
          </mxGeometry>
        </mxCell>
        <mxCell id="4ihTeEzKZuz1NccWkODX-8" value="" style="endArrow=none;html=1;rounded=0;entryX=0;entryY=1;entryDx=0;entryDy=0;" parent="1" target="qdoZ0_azvyJZ9i20PAHD-22" edge="1">
          <mxGeometry width="50" height="50" relative="1" as="geometry">
            <mxPoint x="-284" y="803" as="sourcePoint" />
            <mxPoint x="-234" y="753" as="targetPoint" />
          </mxGeometry>
        </mxCell>
        <mxCell id="4ihTeEzKZuz1NccWkODX-9" value="M" style="edgeLabel;html=1;align=center;verticalAlign=middle;resizable=0;points=[];fontSize=14;" parent="4ihTeEzKZuz1NccWkODX-8" vertex="1" connectable="0">
          <mxGeometry x="0.2041" y="2" relative="1" as="geometry">
            <mxPoint x="-1" as="offset" />
          </mxGeometry>
        </mxCell>
        <mxCell id="GBAowp9A4eLOcmqatsSq-1" value="HAS" style="rhombus;whiteSpace=wrap;html=1;fillColor=#FAE5C7;strokeColor=#0F8B8D;fontColor=#143642;strokeWidth=6;perimeterSpacing=0;opacity=70;labelBackgroundColor=none;" parent="1" vertex="1">
          <mxGeometry x="-38.14" y="115" width="60" height="60" as="geometry" />
        </mxCell>
        <mxCell id="GBAowp9A4eLOcmqatsSq-2" value="HAS" style="rhombus;whiteSpace=wrap;html=1;fillColor=#FAE5C7;strokeColor=#0F8B8D;fontColor=#143642;strokeWidth=6;perimeterSpacing=0;opacity=70;labelBackgroundColor=none;" parent="1" vertex="1">
          <mxGeometry x="-258" y="107" width="60" height="60" as="geometry" />
        </mxCell>
        <mxCell id="GBAowp9A4eLOcmqatsSq-3" value="" style="endArrow=none;html=1;rounded=0;exitX=0.5;exitY=0;exitDx=0;exitDy=0;fillColor=#f8cecc;strokeColor=#b85450;shape=link;" parent="1" source="UTBHH5BBr0o0uskHoU8n-30" edge="1">
          <mxGeometry width="50" height="50" relative="1" as="geometry">
            <mxPoint x="-277" y="219" as="sourcePoint" />
            <mxPoint x="-227" y="169" as="targetPoint" />
          </mxGeometry>
        </mxCell>
        <mxCell id="GBAowp9A4eLOcmqatsSq-9" value="M" style="edgeLabel;html=1;align=center;verticalAlign=middle;resizable=0;points=[];fontSize=14;" parent="GBAowp9A4eLOcmqatsSq-3" vertex="1" connectable="0">
          <mxGeometry x="-0.216" relative="1" as="geometry">
            <mxPoint x="-1" as="offset" />
          </mxGeometry>
        </mxCell>
        <mxCell id="GBAowp9A4eLOcmqatsSq-4" value="" style="endArrow=none;html=1;rounded=0;exitX=0.5;exitY=0;exitDx=0;exitDy=0;fillColor=#f8cecc;strokeColor=#b85450;" parent="1" source="GBAowp9A4eLOcmqatsSq-2" edge="1">
          <mxGeometry width="50" height="50" relative="1" as="geometry">
            <mxPoint x="-193" y="98" as="sourcePoint" />
            <mxPoint x="-143" y="48" as="targetPoint" />
          </mxGeometry>
        </mxCell>
        <mxCell id="GBAowp9A4eLOcmqatsSq-11" value="1" style="edgeLabel;html=1;align=center;verticalAlign=middle;resizable=0;points=[];fontSize=14;" parent="GBAowp9A4eLOcmqatsSq-4" vertex="1" connectable="0">
          <mxGeometry x="-0.0249" relative="1" as="geometry">
            <mxPoint as="offset" />
          </mxGeometry>
        </mxCell>
        <mxCell id="GBAowp9A4eLOcmqatsSq-5" value="" style="endArrow=none;html=1;rounded=0;exitX=0.5;exitY=0;exitDx=0;exitDy=0;fillColor=#f8cecc;strokeColor=#b85450;" parent="1" source="GBAowp9A4eLOcmqatsSq-1" edge="1">
          <mxGeometry width="50" height="50" relative="1" as="geometry">
            <mxPoint x="280.86" y="96" as="sourcePoint" />
            <mxPoint x="330.86" y="46" as="targetPoint" />
          </mxGeometry>
        </mxCell>
        <mxCell id="GBAowp9A4eLOcmqatsSq-12" value="1" style="edgeLabel;html=1;align=center;verticalAlign=middle;resizable=0;points=[];fontSize=14;" parent="GBAowp9A4eLOcmqatsSq-5" vertex="1" connectable="0">
          <mxGeometry x="-0.0912" y="-1" relative="1" as="geometry">
            <mxPoint as="offset" />
          </mxGeometry>
        </mxCell>
        <mxCell id="GBAowp9A4eLOcmqatsSq-6" value="" style="endArrow=none;html=1;rounded=0;exitX=0.75;exitY=0;exitDx=0;exitDy=0;fillColor=#f8cecc;strokeColor=#b85450;shape=link;" parent="1" source="UTBHH5BBr0o0uskHoU8n-30" edge="1">
          <mxGeometry width="50" height="50" relative="1" as="geometry">
            <mxPoint x="-60" y="223" as="sourcePoint" />
            <mxPoint x="-10" y="173" as="targetPoint" />
          </mxGeometry>
        </mxCell>
        <mxCell id="GBAowp9A4eLOcmqatsSq-10" value="M" style="edgeLabel;html=1;align=center;verticalAlign=middle;resizable=0;points=[];fontSize=14;" parent="GBAowp9A4eLOcmqatsSq-6" vertex="1" connectable="0">
          <mxGeometry x="-0.1023" y="-1" relative="1" as="geometry">
            <mxPoint as="offset" />
          </mxGeometry>
        </mxCell>
        <mxCell id="GBAowp9A4eLOcmqatsSq-13" value="Degree" style="ellipse;whiteSpace=wrap;html=1;align=center;fillColor=none;fontColor=#143642;strokeColor=#0F8B8D;labelBackgroundColor=none;" parent="1" vertex="1">
          <mxGeometry x="40" y="823" width="100" height="40" as="geometry" />
        </mxCell>
        <mxCell id="GBAowp9A4eLOcmqatsSq-14" value="" style="endArrow=none;html=1;rounded=0;exitX=1;exitY=0.5;exitDx=0;exitDy=0;" parent="1" source="GBAowp9A4eLOcmqatsSq-13" edge="1">
          <mxGeometry width="50" height="50" relative="1" as="geometry">
            <mxPoint x="148" y="911" as="sourcePoint" />
            <mxPoint x="198" y="861" as="targetPoint" />
          </mxGeometry>
        </mxCell>
        <mxCell id="yseN2MC4rKB7UndNj1PI-1" value="" style="endArrow=none;html=1;rounded=0;" edge="1" parent="1">
          <mxGeometry width="50" height="50" relative="1" as="geometry">
            <mxPoint x="-128.3" y="470" as="sourcePoint" />
            <mxPoint x="-130.3" y="444" as="targetPoint" />
          </mxGeometry>
        </mxCell>
        <mxCell id="yseN2MC4rKB7UndNj1PI-2" value="Result&amp;nbsp;" style="ellipse;whiteSpace=wrap;html=1;fillColor=none;strokeColor=#67AB9F;" vertex="1" parent="1">
          <mxGeometry x="-173" y="412" width="78" height="32" as="geometry" />
        </mxCell>
      </root>
    </mxGraphModel>
  </diagram>
</mxfile>
